<svg width="53" height="53" viewBox="0 0 53 53" fill="none" xmlns="http://www.w3.org/2000/svg">
<path d="M23.2492 2.66732C24.7553 0.27335 28.2447 0.27335 29.7508 2.66732C30.8519 4.41763 33.1412 4.98188 34.9296 3.94378C37.3756 2.52392 40.4654 4.14554 40.6864 6.96519C40.8479 9.02672 42.6128 10.5902 44.6788 10.5021C47.5045 10.3817 49.4867 13.2534 48.372 15.8528C47.5571 17.7533 48.3932 19.9578 50.2634 20.84C52.8215 22.0465 53.2421 25.5105 51.0471 27.2941C49.4423 28.5981 49.1581 30.9387 50.4042 32.589C52.1085 34.8461 50.8712 38.1087 48.0987 38.668C46.0717 39.0769 44.7323 41.0173 45.0688 43.0576C45.529 45.8482 42.9171 48.1621 40.2023 47.3689C38.2175 46.789 36.1297 47.8847 35.4795 49.8477C34.5901 52.5325 31.2021 53.3676 29.1669 51.4036C27.6789 49.9676 25.3211 49.9676 23.8331 51.4036C21.7979 53.3676 18.4099 52.5325 17.5205 49.8477C16.8703 47.8847 14.7825 46.789 12.7977 47.3689C10.0829 48.1621 7.47101 45.8482 7.93122 43.0576C8.26769 41.0173 6.92831 39.0769 4.90129 38.668C2.12883 38.1087 0.891464 34.8461 2.59582 32.589C3.84192 30.9387 3.55772 28.5981 1.9529 27.2941C-0.242085 25.5105 0.178518 22.0465 2.73657 20.84C4.60684 19.9578 5.44292 17.7533 4.62795 15.8528C3.51329 13.2534 5.49551 10.3817 8.32124 10.5021C10.3872 10.5902 12.1521 9.02672 12.3136 6.96519C12.5346 4.14554 15.6244 2.52392 18.0704 3.94378C19.8588 4.98188 22.1481 4.41763 23.2492 2.66732Z" fill="black"/>
</svg>
